<svg id="mermaid-43ad267d-1a62-41f8-8171-feb0d3d102e5" width="1088.7717895507812" xmlns="http://www.w3.org/2000/svg" class="flowchart" style="max-width: 1024.7717895507812px;" viewBox="-28 -28 1088.7717895507812 1145.5" role="graphics-document document" aria-roledescription="flowchart-v2" xmlns:xlink="http://www.w3.org/1999/xlink" height="1145.5"><rect x="-28" y="-28" width="1088.7717895507812" height="1145.5" fill="#ffffff"/><style>#mermaid-43ad267d-1a62-41f8-8171-feb0d3d102e5{font-family:ui-sans-serif,-apple-system,BlinkMacSystemFont,"Segoe UI Variable Display","Segoe UI",Helvetica,"Apple Color Emoji","Noto Sans Arabic","Noto Sans Hebrew",Arial,sans-serif,"Segoe UI Emoji","Segoe UI Symbol";font-size:16px;fill:#000000;}@keyframes edge-animation-frame{from{stroke-dashoffset:0;}}@keyframes dash{to{stroke-dashoffset:0;}}#mermaid-43ad267d-1a62-41f8-8171-feb0d3d102e5 .edge-animation-slow{stroke-dasharray:9,5!important;stroke-dashoffset:900;animation:dash 50s linear infinite;stroke-linecap:round;}#mermaid-43ad267d-1a62-41f8-8171-feb0d3d102e5 .edge-animation-fast{stroke-dasharray:9,5!important;stroke-dashoffset:900;animation:dash 20s linear infinite;stroke-linecap:round;}#mermaid-43ad267d-1a62-41f8-8171-feb0d3d102e5 .error-icon{fill:#552222;}#mermaid-43ad267d-1a62-41f8-8171-feb0d3d102e5 .error-text{fill:#552222;stroke:#552222;}#mermaid-43ad267d-1a62-41f8-8171-feb0d3d102e5 .edge-thickness-normal{stroke-width:1px;}#mermaid-43ad267d-1a62-41f8-8171-feb0d3d102e5 .edge-thickness-thick{stroke-width:3.5px;}#mermaid-43ad267d-1a62-41f8-8171-feb0d3d102e5 .edge-pattern-solid{stroke-dasharray:0;}#mermaid-43ad267d-1a62-41f8-8171-feb0d3d102e5 .edge-thickness-invisible{stroke-width:0;fill:none;}#mermaid-43ad267d-1a62-41f8-8171-feb0d3d102e5 .edge-pattern-dashed{stroke-dasharray:3;}#mermaid-43ad267d-1a62-41f8-8171-feb0d3d102e5 .edge-pattern-dotted{stroke-dasharray:2;}#mermaid-43ad267d-1a62-41f8-8171-feb0d3d102e5 .marker{fill:#666;stroke:#666;}#mermaid-43ad267d-1a62-41f8-8171-feb0d3d102e5 .marker.cross{stroke:#666;}#mermaid-43ad267d-1a62-41f8-8171-feb0d3d102e5 svg{font-family:ui-sans-serif,-apple-system,BlinkMacSystemFont,"Segoe UI Variable Display","Segoe UI",Helvetica,"Apple Color Emoji","Noto Sans Arabic","Noto Sans Hebrew",Arial,sans-serif,"Segoe UI Emoji","Segoe UI Symbol";font-size:16px;}#mermaid-43ad267d-1a62-41f8-8171-feb0d3d102e5 p{margin:0;}#mermaid-43ad267d-1a62-41f8-8171-feb0d3d102e5 .label{font-family:ui-sans-serif,-apple-system,BlinkMacSystemFont,"Segoe UI Variable Display","Segoe UI",Helvetica,"Apple Color Emoji","Noto Sans Arabic","Noto Sans Hebrew",Arial,sans-serif,"Segoe UI Emoji","Segoe UI Symbol";color:#000000;}#mermaid-43ad267d-1a62-41f8-8171-feb0d3d102e5 .cluster-label text{fill:#333;}#mermaid-43ad267d-1a62-41f8-8171-feb0d3d102e5 .cluster-label span{color:#333;}#mermaid-43ad267d-1a62-41f8-8171-feb0d3d102e5 .cluster-label span p{background-color:transparent;}#mermaid-43ad267d-1a62-41f8-8171-feb0d3d102e5 .label text,#mermaid-43ad267d-1a62-41f8-8171-feb0d3d102e5 span{fill:#000000;color:#000000;}#mermaid-43ad267d-1a62-41f8-8171-feb0d3d102e5 .node rect,#mermaid-43ad267d-1a62-41f8-8171-feb0d3d102e5 .node circle,#mermaid-43ad267d-1a62-41f8-8171-feb0d3d102e5 .node ellipse,#mermaid-43ad267d-1a62-41f8-8171-feb0d3d102e5 .node polygon,#mermaid-43ad267d-1a62-41f8-8171-feb0d3d102e5 .node path{fill:#eee;stroke:#999;stroke-width:1px;}#mermaid-43ad267d-1a62-41f8-8171-feb0d3d102e5 .rough-node .label text,#mermaid-43ad267d-1a62-41f8-8171-feb0d3d102e5 .node .label text,#mermaid-43ad267d-1a62-41f8-8171-feb0d3d102e5 .image-shape .label,#mermaid-43ad267d-1a62-41f8-8171-feb0d3d102e5 .icon-shape .label{text-anchor:middle;}#mermaid-43ad267d-1a62-41f8-8171-feb0d3d102e5 .node .katex path{fill:#000;stroke:#000;stroke-width:1px;}#mermaid-43ad267d-1a62-41f8-8171-feb0d3d102e5 .rough-node .label,#mermaid-43ad267d-1a62-41f8-8171-feb0d3d102e5 .node .label,#mermaid-43ad267d-1a62-41f8-8171-feb0d3d102e5 .image-shape .label,#mermaid-43ad267d-1a62-41f8-8171-feb0d3d102e5 .icon-shape .label{text-align:center;}#mermaid-43ad267d-1a62-41f8-8171-feb0d3d102e5 .node.clickable{cursor:pointer;}#mermaid-43ad267d-1a62-41f8-8171-feb0d3d102e5 .root .anchor path{fill:#666!important;stroke-width:0;stroke:#666;}#mermaid-43ad267d-1a62-41f8-8171-feb0d3d102e5 .arrowheadPath{fill:#333333;}#mermaid-43ad267d-1a62-41f8-8171-feb0d3d102e5 .edgePath .path{stroke:#666;stroke-width:2.0px;}#mermaid-43ad267d-1a62-41f8-8171-feb0d3d102e5 .flowchart-link{stroke:#666;fill:none;}#mermaid-43ad267d-1a62-41f8-8171-feb0d3d102e5 .edgeLabel{background-color:white;text-align:center;}#mermaid-43ad267d-1a62-41f8-8171-feb0d3d102e5 .edgeLabel p{background-color:white;}#mermaid-43ad267d-1a62-41f8-8171-feb0d3d102e5 .edgeLabel rect{opacity:0.5;background-color:white;fill:white;}#mermaid-43ad267d-1a62-41f8-8171-feb0d3d102e5 .labelBkg{background-color:rgba(255, 255, 255, 0.5);}#mermaid-43ad267d-1a62-41f8-8171-feb0d3d102e5 .cluster rect{fill:hsl(0, 0%, 98.9215686275%);stroke:#707070;stroke-width:1px;}#mermaid-43ad267d-1a62-41f8-8171-feb0d3d102e5 .cluster text{fill:#333;}#mermaid-43ad267d-1a62-41f8-8171-feb0d3d102e5 .cluster span{color:#333;}#mermaid-43ad267d-1a62-41f8-8171-feb0d3d102e5 div.mermaidTooltip{position:absolute;text-align:center;max-width:200px;padding:2px;font-family:ui-sans-serif,-apple-system,BlinkMacSystemFont,"Segoe UI Variable Display","Segoe UI",Helvetica,"Apple Color Emoji","Noto Sans Arabic","Noto Sans Hebrew",Arial,sans-serif,"Segoe UI Emoji","Segoe UI Symbol";font-size:12px;background:hsl(-160, 0%, 93.3333333333%);border:1px solid #707070;border-radius:2px;pointer-events:none;z-index:100;}#mermaid-43ad267d-1a62-41f8-8171-feb0d3d102e5 .flowchartTitleText{text-anchor:middle;font-size:18px;fill:#000000;}#mermaid-43ad267d-1a62-41f8-8171-feb0d3d102e5 rect.text{fill:none;stroke-width:0;}#mermaid-43ad267d-1a62-41f8-8171-feb0d3d102e5 .icon-shape,#mermaid-43ad267d-1a62-41f8-8171-feb0d3d102e5 .image-shape{background-color:white;text-align:center;}#mermaid-43ad267d-1a62-41f8-8171-feb0d3d102e5 .icon-shape p,#mermaid-43ad267d-1a62-41f8-8171-feb0d3d102e5 .image-shape p{background-color:white;padding:2px;}#mermaid-43ad267d-1a62-41f8-8171-feb0d3d102e5 .icon-shape rect,#mermaid-43ad267d-1a62-41f8-8171-feb0d3d102e5 .image-shape rect{opacity:0.5;background-color:white;fill:white;}#mermaid-43ad267d-1a62-41f8-8171-feb0d3d102e5 .label-icon{display:inline-block;height:1em;overflow:visible;vertical-align:-0.125em;}#mermaid-43ad267d-1a62-41f8-8171-feb0d3d102e5 .node .label-icon path{fill:currentColor;stroke:revert;stroke-width:revert;}#mermaid-43ad267d-1a62-41f8-8171-feb0d3d102e5 :root{--mermaid-font-family:"trebuchet ms",verdana,arial,sans-serif;}#mermaid-43ad267d-1a62-41f8-8171-feb0d3d102e5 .input&gt;*{fill:#e1f5fe!important;stroke:#01579b!important;stroke-width:2px!important;}#mermaid-43ad267d-1a62-41f8-8171-feb0d3d102e5 .input span{fill:#e1f5fe!important;stroke:#01579b!important;stroke-width:2px!important;}#mermaid-43ad267d-1a62-41f8-8171-feb0d3d102e5 .nlp&gt;*{fill:#f3e5f5!important;stroke:#4a148c!important;stroke-width:2px!important;}#mermaid-43ad267d-1a62-41f8-8171-feb0d3d102e5 .nlp span{fill:#f3e5f5!important;stroke:#4a148c!important;stroke-width:2px!important;}#mermaid-43ad267d-1a62-41f8-8171-feb0d3d102e5 .core&gt;*{fill:#e8f5e9!important;stroke:#1b5e20!important;stroke-width:2px!important;}#mermaid-43ad267d-1a62-41f8-8171-feb0d3d102e5 .core span{fill:#e8f5e9!important;stroke:#1b5e20!important;stroke-width:2px!important;}#mermaid-43ad267d-1a62-41f8-8171-feb0d3d102e5 .output&gt;*{fill:#fce4ec!important;stroke:#880e4f!important;stroke-width:2px!important;}#mermaid-43ad267d-1a62-41f8-8171-feb0d3d102e5 .output span{fill:#fce4ec!important;stroke:#880e4f!important;stroke-width:2px!important;}#mermaid-43ad267d-1a62-41f8-8171-feb0d3d102e5 .cv&gt;*{fill:#fff3e0!important;stroke:#e65100!important;stroke-width:2px!important;}#mermaid-43ad267d-1a62-41f8-8171-feb0d3d102e5 .cv span{fill:#fff3e0!important;stroke:#e65100!important;stroke-width:2px!important;}</style><g><marker id="mermaid-43ad267d-1a62-41f8-8171-feb0d3d102e5_flowchart-v2-pointEnd" class="marker flowchart-v2" viewBox="0 0 10 10" refX="5" refY="5" markerUnits="userSpaceOnUse" markerWidth="8" markerHeight="8" orient="auto"><path d="M 0 0 L 10 5 L 0 10 z" class="arrowMarkerPath" style="stroke-width: 1; stroke-dasharray: 1, 0;"/></marker><marker id="mermaid-43ad267d-1a62-41f8-8171-feb0d3d102e5_flowchart-v2-pointStart" class="marker flowchart-v2" viewBox="0 0 10 10" refX="4.5" refY="5" markerUnits="userSpaceOnUse" markerWidth="8" markerHeight="8" orient="auto"><path d="M 0 5 L 10 10 L 10 0 z" class="arrowMarkerPath" style="stroke-width: 1; stroke-dasharray: 1, 0;"/></marker><marker id="mermaid-43ad267d-1a62-41f8-8171-feb0d3d102e5_flowchart-v2-circleEnd" class="marker flowchart-v2" viewBox="0 0 10 10" refX="11" refY="5" markerUnits="userSpaceOnUse" markerWidth="11" markerHeight="11" orient="auto"><circle cx="5" cy="5" r="5" class="arrowMarkerPath" style="stroke-width: 1; stroke-dasharray: 1, 0;"/></marker><marker id="mermaid-43ad267d-1a62-41f8-8171-feb0d3d102e5_flowchart-v2-circleStart" class="marker flowchart-v2" viewBox="0 0 10 10" refX="-1" refY="5" markerUnits="userSpaceOnUse" markerWidth="11" markerHeight="11" orient="auto"><circle cx="5" cy="5" r="5" class="arrowMarkerPath" style="stroke-width: 1; stroke-dasharray: 1, 0;"/></marker><marker id="mermaid-43ad267d-1a62-41f8-8171-feb0d3d102e5_flowchart-v2-crossEnd" class="marker cross flowchart-v2" viewBox="0 0 11 11" refX="12" refY="5.2" markerUnits="userSpaceOnUse" markerWidth="11" markerHeight="11" orient="auto"><path d="M 1,1 l 9,9 M 10,1 l -9,9" class="arrowMarkerPath" style="stroke-width: 2; stroke-dasharray: 1, 0;"/></marker><marker id="mermaid-43ad267d-1a62-41f8-8171-feb0d3d102e5_flowchart-v2-crossStart" class="marker cross flowchart-v2" viewBox="0 0 11 11" refX="-1" refY="5.2" markerUnits="userSpaceOnUse" markerWidth="11" markerHeight="11" orient="auto"><path d="M 1,1 l 9,9 M 10,1 l -9,9" class="arrowMarkerPath" style="stroke-width: 2; stroke-dasharray: 1, 0;"/></marker></g><g class="subgraphs"/><g class="nodes"><g class="node default input" id="flowchart-Text-0" transform="translate(528.2547572253742, 39)"><rect class="basic label-container" style="fill:#e1f5fe !important;stroke:#01579b !important;stroke-width:2px !important" x="-98.77734375" y="-27" width="197.5546875" height="54"/><g class="label" style="" transform="translate(-68.77734375, -12)"><rect/><foreignObject width="137.5546875" height="24"><div style="display: table-cell; white-space: nowrap; line-height: 1.5; max-width: 200px; text-align: center;" xmlns="http://www.w3.org/1999/xhtml"><span class="nodeLabel"><p>Target Text Context</p></span></div></foreignObject></g></g><g class="node default input" id="flowchart-Gaze-1" transform="translate(290.62009225827813, 301)"><rect class="basic label-container" style="fill:#e1f5fe !important;stroke:#01579b !important;stroke-width:2px !important" x="-130" y="-39" width="260" height="78"/><g class="label" style="" transform="translate(-100, -24)"><rect/><foreignObject width="200" height="48"><div style="display: table; white-space: break-spaces; line-height: 1.5; max-width: 200px; text-align: center; width: 200px;" xmlns="http://www.w3.org/1999/xhtml"><span class="nodeLabel"><p>Noisy Webcam Gaze Stream\n+45px Drift</p></span></div></foreignObject></g></g><g class="node default nlp" id="flowchart-BERT-2" transform="translate(528.2547572253742, 164)"><rect class="basic label-container" style="fill:#f3e5f5 !important;stroke:#4a148c !important;stroke-width:2px !important" x="-130" y="-63" width="260" height="126"/><g class="label" style="" transform="translate(-100, -48)"><rect/><foreignObject width="200" height="96"><div style="display: table; white-space: break-spaces; line-height: 1.5; max-width: 200px; text-align: center; width: 200px;" xmlns="http://www.w3.org/1999/xhtml"><span class="nodeLabel"><p>Linguistic Feature Extraction: BERT\nSurprisal &amp; Attention Centrality</p></span></div></foreignObject></g></g><g class="node default nlp" id="flowchart-CM-3" transform="translate(572.1583653253325, 305)"><rect class="basic label-container" style="fill:#f3e5f5 !important;stroke:#4a148c !important;stroke-width:2px !important" x="-102.40625" y="-27" width="204.8125" height="54"/><g class="label" style="" transform="translate(-72.40625, -12)"><rect/><foreignObject width="144.8125" height="24"><div style="display: table-cell; white-space: nowrap; line-height: 1.5; max-width: 200px; text-align: center;" xmlns="http://www.w3.org/1999/xhtml"><span class="nodeLabel"><p>Cognitive Mass 'CM'</p></span></div></foreignObject></g></g><g class="node default core" id="flowchart-POM-4" transform="translate(606.2937819919991, 575)"><rect class="basic label-container" style="fill:#e8f5e9 !important;stroke:#1b5e20 !important;stroke-width:2px !important" x="-130" y="-63" width="260" height="126"/><g class="label" style="" transform="translate(-100, -48)"><rect/><foreignObject width="200" height="96"><div style="display: table; white-space: break-spaces; line-height: 1.5; max-width: 200px; text-align: center; width: 200px;" xmlns="http://www.w3.org/1999/xhtml"><span class="nodeLabel"><p>Psycholinguistic-Oculomotor Model\nForward / Skip / Regress</p></span></div></foreignObject></g></g><g class="node default cv" id="flowchart-Perception-5" transform="translate(378.4825319919992, 426)"><rect class="basic label-container" style="fill:#fff3e0 !important;stroke:#e65100 !important;stroke-width:2px !important" x="-130" y="-51" width="260" height="102"/><g class="label" style="" transform="translate(-100, -36)"><rect/><foreignObject width="200" height="72"><div style="display: table; white-space: break-spaces; line-height: 1.5; max-width: 200px; text-align: center; width: 200px;" xmlns="http://www.w3.org/1999/xhtml"><span class="nodeLabel"><p>Neural Perception Likelihood\n2D Gaussian + 35% OVP Offset</p></span></div></foreignObject></g></g><g class="node default core" id="flowchart-EM-6" transform="translate(538.5651041666666, 1026.5)"><rect class="basic label-container" style="fill:#e8f5e9 !important;stroke:#1b5e20 !important;stroke-width:2px !important" x="-130" y="-51" width="260" height="102"/><g class="label" style="" transform="translate(-100, -36)"><rect/><foreignObject width="200" height="72"><div style="display: table; white-space: break-spaces; line-height: 1.5; max-width: 200px; text-align: center; width: 200px;" xmlns="http://www.w3.org/1999/xhtml"><span class="nodeLabel"><p>Multi-Hypothesis EM Initialization\nH = 0, +Line, -Line</p></span></div></foreignObject></g></g><g class="node default core" id="flowchart-Viterbi-7" transform="translate(520.937160594606, 771)"><rect class="basic label-container" style="fill:#e8f5e9 !important;stroke:#1b5e20 !important;stroke-width:2px !important" x="-130" y="-39" width="260" height="78"/><g class="label" style="" transform="translate(-100, -24)"><rect/><foreignObject width="200" height="48"><div style="display: table; white-space: break-spaces; line-height: 1.5; max-width: 200px; text-align: center; width: 200px;" xmlns="http://www.w3.org/1999/xhtml"><span class="nodeLabel"><p>Spatio-Temporal Viterbi Decoder</p></span></div></foreignObject></g></g><g class="node default output" id="flowchart-OutPath-8" transform="translate(128.2734375, 889.5)"><rect class="basic label-container" style="fill:#fce4ec !important;stroke:#880e4f !important;stroke-width:2px !important" x="-116.2734375" y="-27" width="232.546875" height="54"/><g class="label" style="" transform="translate(-86.2734375, -12)"><rect/><foreignObject width="172.546875" height="24"><div style="display: table-cell; white-space: nowrap; line-height: 1.5; max-width: 200px; text-align: center;" xmlns="http://www.w3.org/1999/xhtml"><span class="nodeLabel"><p>Decoded Semantic Path</p></span></div></foreignObject></g></g><g class="node default output" id="flowchart-OutGaze-9" transform="translate(890.7718011718752, 901.5)"><rect class="basic label-container" style="fill:#fce4ec !important;stroke:#880e4f !important;stroke-width:2px !important" x="-130" y="-39" width="260" height="78"/><g class="label" style="" transform="translate(-100, -24)"><rect/><foreignObject width="200" height="48"><div style="display: table; white-space: break-spaces; line-height: 1.5; max-width: 200px; text-align: center; width: 200px;" xmlns="http://www.w3.org/1999/xhtml"><span class="nodeLabel"><p>Calibrated Gaze Coordinates</p></span></div></foreignObject></g></g></g><g class="edges edgePaths"><path d="M528.255,66L528.255,97" id="L_Text_BERT_0_0" class="edge-thickness-normal edge-pattern-solid edge-thickness-normal edge-pattern-solid flowchart-link" style="" marker-end="url(#mermaid-43ad267d-1a62-41f8-8171-feb0d3d102e5_flowchart-v2-pointEnd)"/><path d="M528.255,227L528.255,229.083C528.255,231.167,528.255,235.333,528.617,237.888C528.979,240.443,529.702,241.386,530.536,242.219C531.369,243.052,532.312,243.776,538.434,244.138C544.556,244.5,555.857,244.5,561.979,244.862C568.101,245.224,569.044,245.948,569.877,246.781C570.711,247.614,571.435,248.557,571.796,253.112C572.158,257.667,572.158,265.833,572.158,269.917L572.158,274" id="L_BERT_CM_0_0" class="edge-thickness-normal edge-pattern-solid edge-thickness-normal edge-pattern-solid flowchart-link" style="" marker-end="url(#mermaid-43ad267d-1a62-41f8-8171-feb0d3d102e5_flowchart-v2-pointEnd)"/><path d="M606.294,332L606.294,508" id="L_CM_POM_0_0" class="edge-thickness-normal edge-pattern-solid edge-thickness-normal edge-pattern-solid flowchart-link" style="" marker-end="url(#mermaid-43ad267d-1a62-41f8-8171-feb0d3d102e5_flowchart-v2-pointEnd)"/><path d="M538.023,332L538.023,335.417C538.023,338.833,538.023,345.667,537.661,349.555C537.299,353.443,536.575,354.386,535.742,355.219C534.909,356.052,533.966,356.776,515.793,357.138C497.621,357.5,462.218,357.5,444.046,357.862C425.873,358.224,424.93,358.948,424.097,359.781C423.264,360.614,422.54,361.557,422.178,363.445C421.816,365.333,421.816,368.167,421.816,369.583L421.816,371" id="L_CM_Perception_0_0" class="edge-thickness-normal edge-pattern-solid edge-thickness-normal edge-pattern-solid flowchart-link" style="" marker-end="url(#mermaid-43ad267d-1a62-41f8-8171-feb0d3d102e5_flowchart-v2-pointEnd)"/><path d="M290.62,340L290.62,342.083C290.62,344.167,290.62,348.333,290.982,350.888C291.344,353.443,292.068,354.386,292.901,355.219C293.734,356.052,294.677,356.776,300.904,357.138C307.13,357.5,318.639,357.5,324.866,357.862C331.092,358.224,332.035,358.948,332.868,359.781C333.701,360.614,334.425,361.557,334.787,363.445C335.149,365.333,335.149,368.167,335.149,369.583L335.149,371" id="L_Gaze_Perception_0_0" class="edge-thickness-normal edge-pattern-solid edge-thickness-normal edge-pattern-solid flowchart-link" style="" marker-end="url(#mermaid-43ad267d-1a62-41f8-8171-feb0d3d102e5_flowchart-v2-pointEnd)"/><path d="M378.483,477L378.483,479.083C378.483,481.167,378.483,485.333,378.121,487.888C377.759,490.443,377.035,491.386,376.201,492.219C375.368,493.052,374.425,493.776,373.692,494.138C372.958,494.5,372.433,494.5,371.7,494.862C370.966,495.224,370.023,495.948,369.19,496.781C368.357,497.614,367.633,498.557,367.271,529.945C366.909,561.333,366.909,623.167,366.909,658.167C366.909,693.167,366.909,701.333,367.271,705.888C367.633,710.443,368.357,711.386,369.19,712.219C370.023,713.052,370.966,713.776,388.22,714.138C405.474,714.5,439.039,714.5,456.293,714.862C473.547,715.224,474.489,715.948,475.323,716.781C476.156,717.614,476.88,718.557,477.242,720.445C477.604,722.333,477.604,725.167,477.604,726.583L477.604,728" id="L_Perception_Viterbi_0_0" class="edge-thickness-normal edge-pattern-solid edge-thickness-normal edge-pattern-solid flowchart-link" style="" marker-end="url(#mermaid-43ad267d-1a62-41f8-8171-feb0d3d102e5_flowchart-v2-pointEnd)"/><path d="M606.294,638L606.294,640.083C606.294,642.167,606.294,646.333,605.932,648.888C605.57,651.443,604.846,652.386,604.013,653.219C603.179,654.052,602.237,654.776,596.428,655.138C590.619,655.5,579.945,655.5,574.136,655.862C568.328,656.224,567.385,656.948,566.552,657.781C565.718,658.614,564.994,659.557,564.632,671.279C564.27,683,564.27,705.5,564.27,716.75L564.27,728" id="L_POM_Viterbi_0_0" class="edge-thickness-normal edge-pattern-solid edge-thickness-normal edge-pattern-solid flowchart-link" style="" marker-end="url(#mermaid-43ad267d-1a62-41f8-8171-feb0d3d102e5_flowchart-v2-pointEnd)"/><path d="M546.937,810L546.937,812.083C546.937,814.167,546.937,818.333,547.299,820.888C547.661,823.443,548.385,824.386,549.218,825.219C550.052,826.052,550.994,826.776,555.626,827.138C560.258,827.5,568.578,827.5,573.21,827.862C577.841,828.224,578.784,828.948,579.617,829.781C580.451,830.614,581.175,831.557,581.537,855.195C581.898,878.833,581.898,925.167,581.898,948.333L581.898,971.5" id="L_Viterbi_EM_0_0" class="edge-thickness-normal edge-pattern-dotted edge-thickness-normal edge-pattern-solid flowchart-link" style="" marker-end="url(#mermaid-43ad267d-1a62-41f8-8171-feb0d3d102e5_flowchart-v2-pointEnd)"/><path d="M495.232,975.5L495.232,973.417C495.232,971.333,495.232,967.167,494.87,964.612C494.508,962.057,493.784,961.114,492.951,960.281C492.117,959.448,491.175,958.724,471.922,958.362C452.67,958,415.109,958,395.856,957.638C376.604,957.276,375.661,956.552,374.828,955.719C373.995,954.886,373.271,953.943,372.909,936.305C372.547,918.667,372.547,884.333,372.909,866.695C373.271,849.057,373.995,848.114,374.828,847.281C375.661,846.448,376.604,845.724,395.807,845.362C415.01,845,452.474,845,471.677,844.638C490.88,844.276,491.823,843.552,492.656,842.719C493.489,841.886,494.213,840.943,494.575,836.138C494.937,831.333,494.937,822.667,494.937,818.333L494.937,814" id="L_EM_Viterbi_0_0" class="edge-thickness-normal edge-pattern-solid edge-thickness-normal edge-pattern-solid flowchart-link" style="" marker-end="url(#mermaid-43ad267d-1a62-41f8-8171-feb0d3d102e5_flowchart-v2-pointEnd)"/><path d="M442.937,810L442.937,812.083C442.937,814.167,442.937,818.333,442.575,820.888C442.213,823.443,441.489,824.386,440.656,825.219C439.823,826.052,438.88,826.776,387.631,827.138C336.383,827.5,234.828,827.5,183.579,827.862C132.331,828.224,131.388,828.948,130.554,829.781C129.721,830.614,128.997,831.557,128.635,836.362C128.273,841.167,128.273,849.833,128.273,854.167L128.273,858.5" id="L_Viterbi_OutPath_0_0" class="edge-thickness-normal edge-pattern-solid edge-thickness-normal edge-pattern-solid flowchart-link" style="" marker-end="url(#mermaid-43ad267d-1a62-41f8-8171-feb0d3d102e5_flowchart-v2-pointEnd)"/><path d="M598.937,810L598.937,812.083C598.937,814.167,598.937,818.333,599.299,820.888C599.661,823.443,600.385,824.386,601.218,825.219C602.052,826.052,602.994,826.776,650.438,827.138C697.882,827.5,791.827,827.5,839.271,827.862C886.715,828.224,887.657,828.948,888.491,829.781C889.324,830.614,890.048,831.557,890.41,836.362C890.772,841.167,890.772,849.833,890.772,854.167L890.772,858.5" id="L_Viterbi_OutGaze_0_0" class="edge-thickness-normal edge-pattern-solid edge-thickness-normal edge-pattern-solid flowchart-link" style="" marker-end="url(#mermaid-43ad267d-1a62-41f8-8171-feb0d3d102e5_flowchart-v2-pointEnd)"/></g><g class="edgeLabels"><g class="edgeLabel"><g class="label" transform="translate(0, 0)"><foreignObject width="0" height="0"><div style="display: table-cell; white-space: nowrap; line-height: 1.5; max-width: 200px; text-align: center;" xmlns="http://www.w3.org/1999/xhtml" class="labelBkg"><span class="edgeLabel"></span></div></foreignObject></g></g><g class="edgeLabel"><g class="label" transform="translate(0, 0)"><foreignObject width="0" height="0"><div style="display: table-cell; white-space: nowrap; line-height: 1.5; max-width: 200px; text-align: center;" xmlns="http://www.w3.org/1999/xhtml" class="labelBkg"><span class="edgeLabel"></span></div></foreignObject></g></g><g class="edgeLabel" transform="translate(606.2586257419991, 426)"><g class="label" transform="translate(-56.46484375, -12)"><foreignObject width="112.9296875" height="24"><div style="display: table-cell; white-space: nowrap; line-height: 1.5; max-width: 200px; text-align: center;" xmlns="http://www.w3.org/1999/xhtml" class="labelBkg"><span class="edgeLabel"><p>Linguistic Priors</p></span></div></foreignObject></g></g><g class="edgeLabel"><g class="label" transform="translate(0, 0)"><foreignObject width="0" height="0"><div style="display: table-cell; white-space: nowrap; line-height: 1.5; max-width: 200px; text-align: center;" xmlns="http://www.w3.org/1999/xhtml" class="labelBkg"><span class="edgeLabel"></span></div></foreignObject></g></g><g class="edgeLabel"><g class="label" transform="translate(0, 0)"><foreignObject width="0" height="0"><div style="display: table-cell; white-space: nowrap; line-height: 1.5; max-width: 200px; text-align: center;" xmlns="http://www.w3.org/1999/xhtml" class="labelBkg"><span class="edgeLabel"></span></div></foreignObject></g></g><g class="edgeLabel" transform="translate(366.84643580822194, 575)"><g class="label" transform="translate(-68.9375, -12)"><foreignObject width="137.875" height="24"><div style="display: table-cell; white-space: nowrap; line-height: 1.5; max-width: 200px; text-align: center;" xmlns="http://www.w3.org/1999/xhtml" class="labelBkg"><span class="edgeLabel"><p>Likelihood Mapping</p></span></div></foreignObject></g></g><g class="edgeLabel" transform="translate(563.9658064279395, 685)"><g class="label" transform="translate(-74.6953125, -12)"><foreignObject width="149.390625" height="24"><div style="display: table-cell; white-space: nowrap; line-height: 1.5; max-width: 200px; text-align: center;" xmlns="http://www.w3.org/1999/xhtml" class="labelBkg"><span class="edgeLabel"><p>Saccadic Momentum</p></span></div></foreignObject></g></g><g class="edgeLabel" transform="translate(581.62890625, 901.5)"><g class="label" transform="translate(-98.73046875, -12)"><foreignObject width="197.4609375" height="24"><div style="display: table-cell; white-space: nowrap; line-height: 1.5; max-width: 200px; text-align: center;" xmlns="http://www.w3.org/1999/xhtml" class="labelBkg"><span class="edgeLabel"><p>Global Likelihood Feedback</p></span></div></foreignObject></g></g><g class="edgeLabel" transform="translate(372.47265625, 901.5)"><g class="label" transform="translate(-92.92578125, -12)"><foreignObject width="185.8515625" height="24"><div style="display: table-cell; white-space: nowrap; line-height: 1.5; max-width: 200px; text-align: center;" xmlns="http://www.w3.org/1999/xhtml" class="labelBkg"><span class="edgeLabel"><p>Initialize Fine-grained Drift</p></span></div></foreignObject></g></g><g class="edgeLabel"><g class="label" transform="translate(0, 0)"><foreignObject width="0" height="0"><div style="display: table-cell; white-space: nowrap; line-height: 1.5; max-width: 200px; text-align: center;" xmlns="http://www.w3.org/1999/xhtml" class="labelBkg"><span class="edgeLabel"></span></div></foreignObject></g></g><g class="edgeLabel"><g class="label" transform="translate(0, 0)"><foreignObject width="0" height="0"><div style="display: table-cell; white-space: nowrap; line-height: 1.5; max-width: 200px; text-align: center;" xmlns="http://www.w3.org/1999/xhtml" class="labelBkg"><span class="edgeLabel"></span></div></foreignObject></g></g></g></svg>